<mxfile host="app.diagrams.net" agent="Mozilla/5.0 (X11; Linux x86_64) AppleWebKit/537.36 (KHTML, like Gecko) Chrome/129.0.0.0 Safari/537.36" version="24.8.0">
  <diagram name="PÃ gina-1" id="ANfU_E7pHBMlSpgSDisd">
    <mxGraphModel dx="1434" dy="754" grid="1" gridSize="10" guides="1" tooltips="1" connect="1" arrows="1" fold="1" page="1" pageScale="1" pageWidth="827" pageHeight="1169" math="0" shadow="0">
      <root>
        <mxCell id="0" />
        <mxCell id="1" parent="0" />
        <mxCell id="CotH0zQE_fKs2QxqjAv6-17" value="" style="shape=flexArrow;endArrow=classic;html=1;rounded=0;fillColor=#d5e8d4;strokeColor=#82b366;" parent="1" edge="1">
          <mxGeometry width="50" height="50" relative="1" as="geometry">
            <mxPoint x="480" y="500" as="sourcePoint" />
            <mxPoint x="740" y="500" as="targetPoint" />
          </mxGeometry>
        </mxCell>
        <mxCell id="CotH0zQE_fKs2QxqjAv6-36" value="&lt;font size=&quot;1&quot; color=&quot;#97d077&quot; style=&quot;&quot;&gt;&lt;b style=&quot;font-size: 20px;&quot;&gt;(develop) git merge --no-ff feature/A&lt;/b&gt;&lt;/font&gt;" style="text;html=1;align=center;verticalAlign=middle;whiteSpace=wrap;rounded=0;" parent="1" vertex="1">
          <mxGeometry x="414" y="450" width="370" height="30" as="geometry" />
        </mxCell>
        <mxCell id="CotH0zQE_fKs2QxqjAv6-37" value="" style="group" parent="1" vertex="1" connectable="0">
          <mxGeometry x="240" y="320" width="290" height="360" as="geometry" />
        </mxCell>
        <mxCell id="CotH0zQE_fKs2QxqjAv6-4" value="" style="edgeStyle=orthogonalEdgeStyle;rounded=0;orthogonalLoop=1;jettySize=auto;html=1;strokeWidth=3;" parent="CotH0zQE_fKs2QxqjAv6-37" source="CotH0zQE_fKs2QxqjAv6-1" target="CotH0zQE_fKs2QxqjAv6-3" edge="1">
          <mxGeometry relative="1" as="geometry" />
        </mxCell>
        <mxCell id="CotH0zQE_fKs2QxqjAv6-1" value="" style="ellipse;whiteSpace=wrap;html=1;fillColor=#dae8fc;strokeColor=#6c8ebf;strokeWidth=4;" parent="CotH0zQE_fKs2QxqjAv6-37" vertex="1">
          <mxGeometry x="80" width="40" height="40" as="geometry" />
        </mxCell>
        <mxCell id="CotH0zQE_fKs2QxqjAv6-2" value="&lt;b style=&quot;color: rgb(126, 166, 224); font-size: 20px;&quot;&gt;develop&lt;/b&gt;" style="text;html=1;align=center;verticalAlign=middle;whiteSpace=wrap;rounded=0;" parent="CotH0zQE_fKs2QxqjAv6-37" vertex="1">
          <mxGeometry y="325" width="60" height="30" as="geometry" />
        </mxCell>
        <mxCell id="CotH0zQE_fKs2QxqjAv6-6" style="rounded=0;orthogonalLoop=1;jettySize=auto;html=1;strokeWidth=3;" parent="CotH0zQE_fKs2QxqjAv6-37" source="CotH0zQE_fKs2QxqjAv6-3" target="CotH0zQE_fKs2QxqjAv6-5" edge="1">
          <mxGeometry relative="1" as="geometry" />
        </mxCell>
        <mxCell id="CotH0zQE_fKs2QxqjAv6-3" value="" style="ellipse;whiteSpace=wrap;html=1;fillColor=#dae8fc;strokeColor=#6c8ebf;strokeWidth=4;" parent="CotH0zQE_fKs2QxqjAv6-37" vertex="1">
          <mxGeometry x="80" y="80" width="40" height="40" as="geometry" />
        </mxCell>
        <mxCell id="CotH0zQE_fKs2QxqjAv6-5" value="" style="ellipse;whiteSpace=wrap;html=1;fillColor=#e1d5e7;strokeColor=#9673a6;strokeWidth=4;" parent="CotH0zQE_fKs2QxqjAv6-37" vertex="1">
          <mxGeometry x="160" y="160" width="40" height="40" as="geometry" />
        </mxCell>
        <mxCell id="CotH0zQE_fKs2QxqjAv6-7" value="" style="ellipse;whiteSpace=wrap;html=1;fillColor=#dae8fc;strokeColor=#6c8ebf;strokeWidth=4;" parent="CotH0zQE_fKs2QxqjAv6-37" vertex="1">
          <mxGeometry x="80" y="240" width="40" height="40" as="geometry" />
        </mxCell>
        <mxCell id="CotH0zQE_fKs2QxqjAv6-8" value="" style="ellipse;whiteSpace=wrap;html=1;fillColor=#e1d5e7;strokeColor=#9673a6;strokeWidth=4;" parent="CotH0zQE_fKs2QxqjAv6-37" vertex="1">
          <mxGeometry x="160" y="240" width="40" height="40" as="geometry" />
        </mxCell>
        <mxCell id="CotH0zQE_fKs2QxqjAv6-9" style="rounded=0;orthogonalLoop=1;jettySize=auto;html=1;strokeWidth=3;" parent="CotH0zQE_fKs2QxqjAv6-37" source="CotH0zQE_fKs2QxqjAv6-5" target="CotH0zQE_fKs2QxqjAv6-8" edge="1">
          <mxGeometry relative="1" as="geometry">
            <mxPoint x="124" y="124" as="sourcePoint" />
            <mxPoint x="176" y="176" as="targetPoint" />
          </mxGeometry>
        </mxCell>
        <mxCell id="CotH0zQE_fKs2QxqjAv6-10" style="rounded=0;orthogonalLoop=1;jettySize=auto;html=1;strokeWidth=3;" parent="CotH0zQE_fKs2QxqjAv6-37" source="CotH0zQE_fKs2QxqjAv6-3" target="CotH0zQE_fKs2QxqjAv6-7" edge="1">
          <mxGeometry relative="1" as="geometry">
            <mxPoint x="190" y="210" as="sourcePoint" />
            <mxPoint x="190" y="250" as="targetPoint" />
          </mxGeometry>
        </mxCell>
        <mxCell id="CotH0zQE_fKs2QxqjAv6-11" value="" style="ellipse;whiteSpace=wrap;html=1;fillColor=#dae8fc;strokeColor=#6c8ebf;strokeWidth=4;" parent="CotH0zQE_fKs2QxqjAv6-37" vertex="1">
          <mxGeometry x="80" y="320" width="40" height="40" as="geometry" />
        </mxCell>
        <mxCell id="CotH0zQE_fKs2QxqjAv6-13" value="" style="ellipse;whiteSpace=wrap;html=1;fillColor=#e1d5e7;strokeColor=#9673a6;strokeWidth=4;" parent="CotH0zQE_fKs2QxqjAv6-37" vertex="1">
          <mxGeometry x="160" y="320" width="40" height="40" as="geometry" />
        </mxCell>
        <mxCell id="CotH0zQE_fKs2QxqjAv6-14" style="rounded=0;orthogonalLoop=1;jettySize=auto;html=1;strokeWidth=3;" parent="CotH0zQE_fKs2QxqjAv6-37" source="CotH0zQE_fKs2QxqjAv6-7" target="CotH0zQE_fKs2QxqjAv6-11" edge="1">
          <mxGeometry relative="1" as="geometry">
            <mxPoint x="110" y="130" as="sourcePoint" />
            <mxPoint x="110" y="250" as="targetPoint" />
          </mxGeometry>
        </mxCell>
        <mxCell id="CotH0zQE_fKs2QxqjAv6-15" style="rounded=0;orthogonalLoop=1;jettySize=auto;html=1;strokeWidth=3;" parent="CotH0zQE_fKs2QxqjAv6-37" source="CotH0zQE_fKs2QxqjAv6-8" target="CotH0zQE_fKs2QxqjAv6-13" edge="1">
          <mxGeometry relative="1" as="geometry">
            <mxPoint x="190" y="210" as="sourcePoint" />
            <mxPoint x="280" y="260" as="targetPoint" />
          </mxGeometry>
        </mxCell>
        <mxCell id="CotH0zQE_fKs2QxqjAv6-16" value="&lt;font color=&quot;#cda2be&quot; size=&quot;1&quot;&gt;&lt;b style=&quot;font-size: 20px;&quot;&gt;feature/A&lt;/b&gt;&lt;/font&gt;" style="text;html=1;align=center;verticalAlign=middle;whiteSpace=wrap;rounded=0;" parent="CotH0zQE_fKs2QxqjAv6-37" vertex="1">
          <mxGeometry x="230" y="325" width="60" height="30" as="geometry" />
        </mxCell>
        <mxCell id="CotH0zQE_fKs2QxqjAv6-18" value="" style="edgeStyle=orthogonalEdgeStyle;rounded=0;orthogonalLoop=1;jettySize=auto;html=1;strokeWidth=3;" parent="1" source="CotH0zQE_fKs2QxqjAv6-19" target="CotH0zQE_fKs2QxqjAv6-22" edge="1">
          <mxGeometry relative="1" as="geometry" />
        </mxCell>
        <mxCell id="CotH0zQE_fKs2QxqjAv6-19" value="" style="ellipse;whiteSpace=wrap;html=1;fillColor=#dae8fc;strokeColor=#6c8ebf;strokeWidth=4;" parent="1" vertex="1">
          <mxGeometry x="760" y="320" width="40" height="40" as="geometry" />
        </mxCell>
        <mxCell id="CotH0zQE_fKs2QxqjAv6-20" value="&lt;b style=&quot;color: rgb(126, 166, 224); font-size: 20px;&quot;&gt;develop&lt;/b&gt;" style="text;html=1;align=center;verticalAlign=middle;whiteSpace=wrap;rounded=0;" parent="1" vertex="1">
          <mxGeometry x="680" y="725" width="60" height="30" as="geometry" />
        </mxCell>
        <mxCell id="CotH0zQE_fKs2QxqjAv6-21" style="rounded=0;orthogonalLoop=1;jettySize=auto;html=1;strokeWidth=3;" parent="1" source="CotH0zQE_fKs2QxqjAv6-22" target="CotH0zQE_fKs2QxqjAv6-23" edge="1">
          <mxGeometry relative="1" as="geometry" />
        </mxCell>
        <mxCell id="CotH0zQE_fKs2QxqjAv6-22" value="" style="ellipse;whiteSpace=wrap;html=1;fillColor=#dae8fc;strokeColor=#6c8ebf;strokeWidth=4;" parent="1" vertex="1">
          <mxGeometry x="760" y="400" width="40" height="40" as="geometry" />
        </mxCell>
        <mxCell id="CotH0zQE_fKs2QxqjAv6-23" value="" style="ellipse;whiteSpace=wrap;html=1;fillColor=#e1d5e7;strokeColor=#9673a6;strokeWidth=4;" parent="1" vertex="1">
          <mxGeometry x="840" y="480" width="40" height="40" as="geometry" />
        </mxCell>
        <mxCell id="CotH0zQE_fKs2QxqjAv6-24" value="" style="ellipse;whiteSpace=wrap;html=1;fillColor=#dae8fc;strokeColor=#6c8ebf;strokeWidth=4;" parent="1" vertex="1">
          <mxGeometry x="760" y="560" width="40" height="40" as="geometry" />
        </mxCell>
        <mxCell id="CotH0zQE_fKs2QxqjAv6-25" value="" style="ellipse;whiteSpace=wrap;html=1;fillColor=#e1d5e7;strokeColor=#9673a6;strokeWidth=4;" parent="1" vertex="1">
          <mxGeometry x="840" y="560" width="40" height="40" as="geometry" />
        </mxCell>
        <mxCell id="CotH0zQE_fKs2QxqjAv6-26" style="rounded=0;orthogonalLoop=1;jettySize=auto;html=1;strokeWidth=3;" parent="1" source="CotH0zQE_fKs2QxqjAv6-23" target="CotH0zQE_fKs2QxqjAv6-25" edge="1">
          <mxGeometry relative="1" as="geometry">
            <mxPoint x="804" y="444" as="sourcePoint" />
            <mxPoint x="856" y="496" as="targetPoint" />
          </mxGeometry>
        </mxCell>
        <mxCell id="CotH0zQE_fKs2QxqjAv6-27" style="rounded=0;orthogonalLoop=1;jettySize=auto;html=1;strokeWidth=3;" parent="1" source="CotH0zQE_fKs2QxqjAv6-22" target="CotH0zQE_fKs2QxqjAv6-24" edge="1">
          <mxGeometry relative="1" as="geometry">
            <mxPoint x="870" y="530" as="sourcePoint" />
            <mxPoint x="870" y="570" as="targetPoint" />
          </mxGeometry>
        </mxCell>
        <mxCell id="CotH0zQE_fKs2QxqjAv6-28" value="" style="ellipse;whiteSpace=wrap;html=1;fillColor=#dae8fc;strokeColor=#6c8ebf;strokeWidth=4;" parent="1" vertex="1">
          <mxGeometry x="760" y="640" width="40" height="40" as="geometry" />
        </mxCell>
        <mxCell id="CotH0zQE_fKs2QxqjAv6-29" value="" style="ellipse;whiteSpace=wrap;html=1;fillColor=#e1d5e7;strokeColor=#9673a6;strokeWidth=4;" parent="1" vertex="1">
          <mxGeometry x="840" y="640" width="40" height="40" as="geometry" />
        </mxCell>
        <mxCell id="CotH0zQE_fKs2QxqjAv6-30" style="rounded=0;orthogonalLoop=1;jettySize=auto;html=1;strokeWidth=3;" parent="1" source="CotH0zQE_fKs2QxqjAv6-24" target="CotH0zQE_fKs2QxqjAv6-28" edge="1">
          <mxGeometry relative="1" as="geometry">
            <mxPoint x="790" y="450" as="sourcePoint" />
            <mxPoint x="790" y="570" as="targetPoint" />
          </mxGeometry>
        </mxCell>
        <mxCell id="CotH0zQE_fKs2QxqjAv6-31" style="rounded=0;orthogonalLoop=1;jettySize=auto;html=1;strokeWidth=3;" parent="1" source="CotH0zQE_fKs2QxqjAv6-25" target="CotH0zQE_fKs2QxqjAv6-29" edge="1">
          <mxGeometry relative="1" as="geometry">
            <mxPoint x="870" y="530" as="sourcePoint" />
            <mxPoint x="960" y="580" as="targetPoint" />
          </mxGeometry>
        </mxCell>
        <mxCell id="CotH0zQE_fKs2QxqjAv6-32" value="&lt;font color=&quot;#cda2be&quot; size=&quot;1&quot;&gt;&lt;b style=&quot;font-size: 20px;&quot;&gt;feature/A&lt;/b&gt;&lt;/font&gt;" style="text;html=1;align=center;verticalAlign=middle;whiteSpace=wrap;rounded=0;" parent="1" vertex="1">
          <mxGeometry x="910" y="645" width="60" height="30" as="geometry" />
        </mxCell>
        <mxCell id="CotH0zQE_fKs2QxqjAv6-33" value="" style="ellipse;whiteSpace=wrap;html=1;fillColor=#dae8fc;strokeColor=#6c8ebf;strokeWidth=4;" parent="1" vertex="1">
          <mxGeometry x="760" y="720" width="40" height="40" as="geometry" />
        </mxCell>
        <mxCell id="CotH0zQE_fKs2QxqjAv6-34" style="rounded=0;orthogonalLoop=1;jettySize=auto;html=1;strokeWidth=3;" parent="1" source="CotH0zQE_fKs2QxqjAv6-29" target="CotH0zQE_fKs2QxqjAv6-33" edge="1">
          <mxGeometry relative="1" as="geometry">
            <mxPoint x="790" y="610" as="sourcePoint" />
            <mxPoint x="790" y="650" as="targetPoint" />
          </mxGeometry>
        </mxCell>
        <mxCell id="CotH0zQE_fKs2QxqjAv6-35" style="rounded=0;orthogonalLoop=1;jettySize=auto;html=1;strokeWidth=3;" parent="1" source="CotH0zQE_fKs2QxqjAv6-28" target="CotH0zQE_fKs2QxqjAv6-33" edge="1">
          <mxGeometry relative="1" as="geometry">
            <mxPoint x="856" y="684" as="sourcePoint" />
            <mxPoint x="804" y="736" as="targetPoint" />
          </mxGeometry>
        </mxCell>
      </root>
    </mxGraphModel>
  </diagram>
</mxfile>
